<svg xmlns="http://www.w3.org/2000/svg" version="1.0" width="577.000000pt" height="433.000000pt" viewBox="0 0 577.000000 433.000000" preserveAspectRatio="xMidYMid meet">

<g transform="translate(0.000000,433.000000) scale(0.100000,-0.100000)" fill="#ffffff" stroke="none">
<path d="M1647 2864 c-4 -4 -7 -29 -7 -56 0 -43 -3 -50 -25 -58 -23 -9 -25 -15 -25 -65 l0 -55 90 0 c53 0 90 -4 90 -10 0 -6 -45 -10 -115 -10 l-115 0 0 -109 c0 -84 -3 -111 -15 -121 -8 -7 -15 -19 -15 -26 0 -11 35 -14 190 -14 155 0 190 3 190 14 0 7 -7 19 -15 26 -11 9 -15 40 -17 118 -3 102 -4 107 -25 110 -20 3 -22 10 -25 70 -3 61 -5 67 -28 72 -22 5 -26 12 -30 60 l-5 55 -45 3 c-25 2 -49 0 -53 -4z m23 -324 c0 -20 -5 -30 -15 -30 -16 0 -18 -5 -19 -60 -1 -30 -5 -35 -28 -38 l-28 -3 0 80 0 81 45 0 c43 0 45 -1 45 -30z m150 -51 l0 -80 -27 3 c-26 3 -28 6 -25 46 3 37 1 44 -17 49 -15 4 -21 13 -21 34 0 28 2 29 45 29 l45 0 0 -81z" fill="#ffffff"/>
<path d="M920 2792 c49 -32 96 -91 139 -173 53 -103 293 -555 331 -624 15 -27 60 -113 100 -190 40 -77 102 -194 137 -259 35 -66 63 -123 63 -128 0 -24 19 0 54 68 40 79 325 617 388 734 19 36 81 153 138 260 126 239 141 262 198 300 l45 30 -209 0 -208 0 31 -29 c54 -49 52 -66 -15 -193 -33 -62 -85 -162 -117 -223 -32 -60 -65 -123 -75 -140 -10 -16 -51 -95 -93 -175 -102 -196 -121 -230 -128 -230 -3 0 -11 10 -17 23 -18 35 -170 323 -222 422 -163 308 -220 425 -220 450 0 19 11 41 32 62 l32 33 -205 -1 c-193 0 -203 -1 -179 -17z" fill="#ffffff"/>
<path d="M2672 2763 l3 -48 77 0 78 0 2 -205 3 -205 55 0 55 0 5 204 5 204 78 -2 77 -2 0 50 0 51 -221 0 -220 0 3 -47z" fill="#ffffff"/>
<path d="M3170 2561 c0 -138 3 -252 8 -254 4 -2 31 -2 60 1 l52 4 0 99 0 99 115 0 115 0 0 -105 0 -105 55 0 55 0 0 255 0 255 -55 0 -55 0 0 -94 0 -95 -105 -3 c-58 -2 -110 -1 -115 0 -6 2 -10 45 -10 98 l0 94 -60 0 -60 0 0 -249z" fill="#ffffff"/>
<path d="M3746 2707 c0 -56 1 -170 2 -254 l2 -152 193 4 192 5 0 42 0 43 -137 3 -138 3 0 54 0 54 118 3 117 3 3 48 3 47 -120 0 -121 0 0 55 0 55 135 0 135 0 0 45 0 45 -192 0 -193 0 1 -103z" fill="#ffffff"/>
<path d="M4360 2806 c0 -2 13 -33 28 -68 16 -34 34 -76 41 -93 7 -16 43 -100 79 -185 l67 -155 56 -3 56 -3 107 248 c58 136 106 252 106 256 0 4 -25 7 -57 5 l-56 -3 -72 -167 c-39 -92 -74 -170 -77 -173 -5 -5 -39 72 -124 278 l-28 67 -63 0 c-35 0 -63 -2 -63 -4z" fill="#ffffff"/>
<path d="M2488 2619 c-11 -99 -60 -168 -192 -269 -63 -48 -75 -67 -201 -305 -37 -72 -89 -168 -115 -215 -26 -47 -57 -105 -69 -129 l-23 -44 44 35 c65 52 91 66 188 103 48 18 106 45 128 59 38 24 112 108 112 127 0 5 -21 -2 -47 -16 -43 -23 -214 -98 -253 -111 -8 -3 5 13 30 35 24 22 93 65 152 96 176 91 255 180 274 306 l6 44 -28 -37 c-40 -51 -74 -76 -194 -148 -58 -34 -115 -72 -127 -83 -39 -35 -34 -13 8 36 23 26 83 77 136 113 116 81 159 124 189 189 30 62 32 169 5 230 l-18 40 -5 -56z" fill="#ffffff"/>
<path d="M891 2634 c-7 -16 -16 -58 -18 -94 -9 -125 44 -211 195 -311 83 -56 141 -107 175 -154 l22 -30 -25 17 c-14 10 -68 43 -120 75 -131 78 -186 119 -216 162 l-26 36 6 -47 c14 -116 101 -213 266 -297 107 -54 186 -105 194 -126 5 -13 -129 41 -246 99 -38 18 -68 30 -68 27 0 -3 16 -26 36 -51 47 -60 123 -110 220 -144 91 -32 150 -65 184 -101 42 -45 39 -27 -9 63 -26 48 -87 161 -136 252 -160 301 -148 283 -238 353 -118 93 -161 153 -175 248 l-7 53 -14 -30z" fill="#ffffff"/>
<path d="M1510 2298 c0 -13 41 -99 90 -193 50 -93 90 -173 90 -177 0 -29 27 14 110 175 62 120 92 188 87 200 -6 15 -25 17 -192 17 l-185 0 0 -22z" fill="#ffffff"/>
<path d="M2763 2189 c-43 -13 -73 -53 -73 -99 0 -55 24 -78 109 -104 83 -25 108 -48 77 -72 -25 -18 -69 -17 -121 1 -52 19 -50 19 -64 -12 -15 -34 -2 -46 70 -63 99 -24 191 14 204 83 13 68 -20 100 -137 132 -59 16 -74 35 -46 63 16 16 87 15 120 -2 25 -13 27 -13 38 14 15 37 9 45 -44 59 -52 13 -88 13 -133 0z" fill="#ffffff"/>
<path d="M3125 2190 c-37 -12 -79 -50 -101 -91 -20 -39 -20 -128 0 -167 63 -121 249 -133 323 -20 56 83 35 200 -45 253 -44 29 -126 41 -177 25z m122 -80 c41 -25 61 -82 44 -131 -32 -95 -158 -96 -198 -2 -13 32 -13 40 2 78 26 69 91 92 152 55z" fill="#ffffff"/>
<path d="M3537 2185 c-52 -18 -83 -49 -103 -101 -35 -92 2 -185 90 -229 59 -30 106 -31 161 -6 61 27 70 43 41 70 -23 22 -25 22 -49 6 -14 -9 -44 -16 -67 -17 -111 -1 -149 156 -49 208 38 19 92 14 120 -12 18 -16 21 -16 44 6 l25 24 -22 23 c-39 41 -121 54 -191 28z" fill="#ffffff"/>
<path d="M3800 2015 l0 -175 40 0 40 0 0 175 0 175 -40 0 -40 0 0 -175z" fill="#ffffff"/>
<path d="M3960 2015 l0 -175 135 0 135 0 0 35 0 35 -95 0 -95 0 0 35 0 35 80 0 80 0 0 35 0 35 -80 0 -80 0 0 35 0 35 90 0 90 0 0 35 0 35 -130 0 -130 0 0 -175z" fill="#ffffff"/>
<path d="M4260 2155 l0 -35 55 0 55 0 0 -140 0 -140 40 0 40 0 0 140 0 140 55 0 55 0 0 35 0 35 -150 0 -150 0 0 -35z" fill="#ffffff"/>
<path d="M4570 2186 c0 -2 29 -53 65 -113 61 -102 65 -111 65 -170 l0 -63 40 0 40 0 0 63 c0 59 4 70 51 147 27 46 57 96 65 112 l15 28 -40 0 c-38 0 -40 -2 -82 -75 -24 -43 -46 -72 -51 -67 -5 5 -26 38 -46 73 -36 61 -39 64 -80 67 -23 2 -42 1 -42 -2z" fill="#ffffff"/>
<path d="M3480 1631 c0 -104 1 -111 20 -111 18 0 20 7 20 61 0 67 9 69 40 8 11 -21 27 -39 35 -39 8 0 27 21 42 48 l28 47 3 -63 c3 -59 5 -63 25 -60 21 3 22 7 22 108 0 100 -1 105 -21 108 -17 2 -29 -10 -59 -64 l-37 -66 -37 63 c-25 44 -44 65 -59 67 -22 3 -22 1 -22 -107z" fill="#ffffff"/>
<path d="M3760 1721 c0 -17 8 -20 51 -23 l51 -3 -56 -70 c-80 -100 -78 -106 36 -103 78 3 93 6 96 20 3 14 -7 17 -59 20 l-62 3 56 70 c79 98 78 105 -28 105 -78 0 -85 -2 -85 -19z" fill="#ffffff"/>
<path d="M3970 1631 l0 -111 75 0 c73 0 75 1 75 25 0 23 -3 25 -50 25 l-49 0 -3 83 c-3 76 -5 82 -25 85 -23 3 -23 2 -23 -107z" fill="#ffffff"/>
<path d="M3200 1630 c0 -18 7 -20 85 -20 78 0 85 2 85 20 0 18 -7 20 -85 20 -78 0 -85 -2 -85 -20z" fill="#ffffff"/>
<path d="M4200 1630 c0 -18 7 -20 85 -20 78 0 85 2 85 20 0 18 -7 20 -85 20 -78 0 -85 -2 -85 -20z" fill="#ffffff"/>
</g>
</svg>